<svg width="80" height="84" viewBox="0 0 80 84" fill="none" xmlns="http://www.w3.org/2000/svg">
<path d="M38 82.0968C38 83.1479 38.8526 84.0045 39.9026 83.9569C46.7597 83.646 53.4467 81.6583 59.3723 78.1555C65.8449 74.3295 71.1716 68.8361 74.7966 62.2488C78.4215 55.6615 80.2116 48.2219 79.9801 40.7066C79.7485 33.1914 77.5038 25.8761 73.4802 19.5244C69.4567 13.1728 63.8018 8.01767 57.106 4.59732C50.4102 1.17698 42.919 -0.383206 35.4145 0.0796578C27.9099 0.542521 20.6672 3.01146 14.4425 7.22871C8.74373 11.0896 4.08951 16.2862 0.878608 22.3531C0.386924 23.2821 0.797095 24.4189 1.74742 24.868C2.69775 25.3171 3.82796 24.9082 4.32383 23.9814C7.24077 18.5297 11.4429 13.8586 16.5774 10.3799C22.238 6.54489 28.8243 4.29971 35.6488 3.8788C42.4732 3.45788 49.2855 4.87667 55.3745 7.98704C61.4635 11.0974 66.6058 15.7853 70.2648 21.5613C73.9237 27.3373 75.965 33.9897 76.1755 40.8238C76.3861 47.658 74.7582 54.4234 71.4618 60.4137C68.1654 66.404 63.3213 71.3995 57.4354 74.8789C52.0964 78.0348 46.0778 79.8383 39.9024 80.1462C38.8526 80.1986 38 81.0457 38 82.0968Z" fill="white"/>
</svg>
