<svg width="28" height="54" viewBox="0 0 28 54" fill="none" xmlns="http://www.w3.org/2000/svg">
<path d="M7.3725 40.1709V31.7818C9.38241 30.1651 11.1957 28.4173 12.8124 26.5385C14.429 24.6597 15.6961 22.6716 16.6137 20.5743C17.575 18.4333 18.0556 16.1831 18.0556 13.8236C18.0556 12.1196 17.7061 10.8525 17.007 10.0223C16.3516 9.14842 15.3466 8.71148 13.9921 8.71148C12.8124 8.71148 11.8729 9.06103 11.1739 9.76013C10.4748 10.4592 10.1252 11.3986 10.1252 12.5784C10.1252 13.2775 10.1907 13.8892 10.3218 14.4135C10.4966 14.9378 10.6714 15.5059 10.8461 16.1176L1.86709 18.1493C1.56124 17.1881 1.32092 16.2486 1.14615 15.3311C0.971372 14.3698 0.883984 13.4086 0.883984 12.4473C0.883984 8.64594 2.02002 5.67477 4.29209 3.53378C6.60786 1.34909 9.90673 0.256752 14.1887 0.256752C18.5581 0.256752 21.9225 1.41464 24.282 3.7304C26.6414 6.04617 27.8211 9.34504 27.8211 13.627C27.8211 16.336 27.3624 18.8703 26.4448 21.2297C25.5272 23.5892 24.1946 25.8176 22.4468 27.9149C20.7428 29.9685 18.711 31.9128 16.3516 33.748V40.1709H7.3725ZM7.0448 54V44.4966H16.7448V54H7.0448Z" fill="#1E1E1E"/>
</svg>
